<svg xmlns="http://www.w3.org/2000/svg" xmlns:xlink="http://www.w3.org/1999/xlink" version="1.1" width="1000" height="1000" viewBox="0 0 1000 1000" xml:space="preserve">
<desc>Created with Fabric.js 3.5.0</desc>
<defs>
</defs>
<rect x="0" y="0" width="100%" height="100%" fill="#ffffff"/>
<g transform="matrix(1.776 0 0 1.776 500.0017 500.0019)" id="617658">
<path style="stroke: none; stroke-width: 1; stroke-dasharray: none; stroke-linecap: butt; stroke-dashoffset: 0; stroke-linejoin: miter; stroke-miterlimit: 4; is-custom-font: none; font-file-url: none; fill: rgb(255,255,255); fill-rule: nonzero; opacity: 1;" vector-effect="non-scaling-stroke" transform=" translate(-224.064, -255.9389)" d="M 448 209.91 a 210.06 210.06 0 0 1 -122.77 -39.25 V 349.38 A 162.55 162.55 0 1 1 185 188.31 V 278.2 a 74.62 74.62 0 1 0 52.23 71.18 V 0 l 88 0 a 121.18 121.18 0 0 0 1.86 22.17 h 0 A 122.18 122.18 0 0 0 381 102.39 a 121.43 121.43 0 0 0 67 20.14 Z" stroke-linecap="round"/>
</g>
</svg>